<svg id="Layer_3" data-name="Layer 3" xmlns="http://www.w3.org/2000/svg" viewBox="0 0 800 180.05"><defs><style>.cls-1{fill:#fff;}</style></defs><title>Logo_wider_wht</title><path class="cls-1" d="M741.41,125.24a10.39,10.39,0,0,1-4.94-3.44,7.26,7.26,0,0,1-1.43-6.17,25.59,25.59,0,0,1,1.75-6,5.81,5.81,0,0,1,4.49-3.51,12.38,12.38,0,0,1,3.57,0,16.3,16.3,0,0,1,3.45.91q3.9,1.3,5,3.51a11.85,11.85,0,0,1,1.24,3.25,13.34,13.34,0,0,1-.46,5.07,9.85,9.85,0,0,1-2.54,4.29,9.08,9.08,0,0,1-4.81,2.41A11.62,11.62,0,0,1,741.41,125.24Z"/><path class="cls-1" d="M164.35,16.36a61.46,61.46,0,0,0-7,.13,35.76,35.76,0,0,0-6.88,1.22,12.75,12.75,0,0,1,1.82.67q0.88,0.4,1.82.81a22.6,22.6,0,0,1,8.57,7.63,23.09,23.09,0,0,1,3.85,11,26.46,26.46,0,0,1-2.09,12.76,36.86,36.86,0,0,1-7.09,10.87A42.19,42.19,0,0,1,145.59,70a62.13,62.13,0,0,1-13.91,4.86l-2,.41a28.93,28.93,0,0,1,4.46,6.68,87.94,87.94,0,0,1,3.71,8.91q1.82,5.06,3.71,11.54t4.32,14.58a54.09,54.09,0,0,0,4.18,10.6,25.33,25.33,0,0,0,5.74,7.36,18.42,18.42,0,0,0,7.7,3.92,27.77,27.77,0,0,0,10.33.27,28.1,28.1,0,0,1-6.75,5.81,28.72,28.72,0,0,1-8.3,3.51,26.15,26.15,0,0,1-9,.61,22.82,22.82,0,0,1-8.91-2.9,21.27,21.27,0,0,1-5.54-4.59,29.5,29.5,0,0,1-3.92-5.94,38.9,38.9,0,0,1-2.63-6.82q-1-3.58-1.69-7.09a81.33,81.33,0,0,1-1.42-8.71q-0.47-4.39-.88-8.78t-0.95-8.71a73.27,73.27,0,0,0-1.62-8.64q-0.54-1.89-1.22-3.91a9.76,9.76,0,0,0-2-3.51,8.73,8.73,0,0,0-3.65-2.56l-2.5.27a22.47,22.47,0,0,0-2.5.41,144.43,144.43,0,0,1-9.85,15.73,83.23,83.23,0,0,1-12.42,13.7,53.37,53.37,0,0,1-13.57,8.64,37.44,37.44,0,0,1-15.86,3.1,26,26,0,0,1-13.77-3.92,24.35,24.35,0,0,1-9.18-11.21,32.49,32.49,0,0,1-2.83-15.79A56.58,56.58,0,0,1,36.1,72a63.59,63.59,0,0,1,7-13.84,33.6,33.6,0,0,1,11.21-10.6,28,28,0,0,1,10.33-3.44,21.53,21.53,0,0,1,10.6,1.15,16.55,16.55,0,0,1,2.23-7,34.48,34.48,0,0,1,4.25-6,38.41,38.41,0,0,1,9.65-7.22,73.08,73.08,0,0,1,11.14-4.79,81.75,81.75,0,0,1,12.62-3q6.41-1,12.89-1.42,1.48-.13,3.17-0.2t3.31-.07a34,34,0,0,1,8.3-3.24,27,27,0,0,1,9.38-.54,27.92,27.92,0,0,1,8.91,2.16Q164.08,15.42,164.35,16.36ZM106.17,28.51a17.81,17.81,0,0,1,.74,6.34,22.24,22.24,0,0,1-1.35,6.34,27.17,27.17,0,0,1-3,5.81,19.75,19.75,0,0,1-4.25,4.59,21.85,21.85,0,0,1-5.87,3.51,15.83,15.83,0,0,1-6.68,1.21A26.62,26.62,0,0,1,87.4,68.81a33.89,33.89,0,0,1-3.51,12.08,32.65,32.65,0,0,1-9.52,11.27,23.77,23.77,0,0,1-13.84,4.93c-0.27,0-.7,0-1.28-0.07l-1.82-.14a13.5,13.5,0,0,1-1.89-.27,6.31,6.31,0,0,1-1.49-.47A18.64,18.64,0,0,0,58,93.72a59.73,59.73,0,0,0,4.73-4,65.48,65.48,0,0,0,4.59-4.79,26.17,26.17,0,0,0,3.38-4.79,47.66,47.66,0,0,0,3.24-6.75A38.62,38.62,0,0,0,76.2,65a20.84,20.84,0,0,0-.2-8,9.73,9.73,0,0,0-4.39-6.07A11.68,11.68,0,0,0,64.52,49a16.24,16.24,0,0,0-6.88,2.16,25.39,25.39,0,0,0-6,4.79,34.26,34.26,0,0,0-4.46,5.87A45.57,45.57,0,0,0,42,77.52a36,36,0,0,0,1.15,16.33,22.28,22.28,0,0,0,3.58,6.68,13.23,13.23,0,0,0,6.14,4.39,18.24,18.24,0,0,0,7.56.88A27.17,27.17,0,0,0,68,104.11a28.9,28.9,0,0,0,12.62-8.71,81.68,81.68,0,0,0,8.84-12.76q4.32-7.56,7.9-15.25T104.82,52q3.91-7.42,9.18-15.73a73.75,73.75,0,0,1,12.29-14.78,63,63,0,0,0-13.09.81,52.12,52.12,0,0,0-10.4,2.7,30.2,30.2,0,0,0-3.71,1.75,39.39,39.39,0,0,0-3.85,2.43Q93.34,30.54,91.66,32a29.14,29.14,0,0,0-2.9,2.77A23.34,23.34,0,0,0,84,41.54q-1.22,3-.41,4.39t3.44,0.61q2.63-.74,6.82-4.39a51.79,51.79,0,0,0,4.32-4q2-2.09,3.64-4t2.77-3.38A15.78,15.78,0,0,0,106.17,28.51Zm17,21.87q-1.89,4.32-3.85,8.5l-4,8.5h0.54a24.41,24.41,0,0,1,3,.74,27.45,27.45,0,0,1,3,1.15,43.45,43.45,0,0,0,9.72-4.59,46.68,46.68,0,0,0,8.5-6.82,37.82,37.82,0,0,0,6.28-8.44A27.63,27.63,0,0,0,149.5,40q0.81-6.48-2.16-10.33a17.66,17.66,0,0,0-8.1-5.74,45.17,45.17,0,0,0-9.38,12.42Q126.15,43.5,123.18,50.38Z"/><path class="cls-1" d="M226,54.16q-1.49,2-3.58,5.27t-4.39,7q-2.3,3.78-4.52,7.83t-4,7.7q-3.64,7.56-5.67,12.69t-1.08,6.62a1.39,1.39,0,0,0,1.42.61,8.94,8.94,0,0,0,2.23-.47,11.21,11.21,0,0,0,2.23-1c0.67-.41,1.15-0.7,1.42-0.88a26.24,26.24,0,0,0,5.27-4.39,67.34,67.34,0,0,0,4.32-5.2q1.89-2.56,3.65-5.4T226.59,79a4.78,4.78,0,0,1,2.77,0,2.69,2.69,0,0,1,1.55,2.16Q229,84.67,227.26,88a56.85,56.85,0,0,1-4,6.61q-2.16,3.24-4.52,6.21a66.82,66.82,0,0,1-5.06,5.67,33.73,33.73,0,0,1-5.6,4.52,11.52,11.52,0,0,1-6.82,1.82,11.18,11.18,0,0,1-6.75-2.16,12.29,12.29,0,0,1-4.32-5.67,14.3,14.3,0,0,1-.95-3.65,48.15,48.15,0,0,1-4.59,5.67,23.46,23.46,0,0,1-5.54,4.32,15.41,15.41,0,0,1-9,2,13.53,13.53,0,0,1-8.24-3.65,15.71,15.71,0,0,1-4.59-7.36A31.07,31.07,0,0,1,156,93.85a39.5,39.5,0,0,1,1.75-10.67A55.47,55.47,0,0,1,162,73.06,59.43,59.43,0,0,1,168.07,64a67.13,67.13,0,0,1,7.36-7.76A31.56,31.56,0,0,1,184,50.52a21.14,21.14,0,0,1,9.92-1.89A15.83,15.83,0,0,1,208.23,59a22.64,22.64,0,0,1,3.71-3.44,16.68,16.68,0,0,1,4.39-2.36,12.55,12.55,0,0,1,5.2-.81A6.94,6.94,0,0,1,226,54.16Zm-42.66,37a47.3,47.3,0,0,0,10.93-11.07,36.3,36.3,0,0,0,6.34-14.31,10.75,10.75,0,0,0-.13-5.6q-0.81-2.77-4.18-3.31a7,7,0,0,0-5,1.08,30.5,30.5,0,0,0-4.19,3.24,46.79,46.79,0,0,0-9.38,13,73.2,73.2,0,0,0-5.47,15.12q-1.76,7.83.74,10.33t6.82,0.2a28,28,0,0,0,5.33-3.65q2.5-2.16,4.79-4.46a21.8,21.8,0,0,1-3.85.47A3.09,3.09,0,0,1,183.39,91.15Z"/><path class="cls-1" d="M296.79,79q3.51-.81,4.32,2.16a124.06,124.06,0,0,1-12.42,19.17,80.43,80.43,0,0,1-7.9,8.37,34.48,34.48,0,0,1-9.65,6.35,17.43,17.43,0,0,1-9.18,1.28,13.9,13.9,0,0,1-8.24-4.12,16.83,16.83,0,0,1-3.64-4.93,26.24,26.24,0,0,1-2-5.74,30.13,30.13,0,0,1-.74-6.08,56.4,56.4,0,0,1,.2-6.21,20.31,20.31,0,0,1,.27-2.5q0.27-1.82.54-3.71t0.54-3.44a6.28,6.28,0,0,1,.4-1.69,54.45,54.45,0,0,0,8.64-3A45,45,0,0,0,265.2,71a41.27,41.27,0,0,0,4.18-3.44,37.14,37.14,0,0,0,4.52-5,24.46,24.46,0,0,0,3.31-5.87,10.18,10.18,0,0,0,.54-6.08,13.25,13.25,0,0,0-4,1.49q-2.3,1.21-4.66,2.77a47.18,47.18,0,0,0-4.52,3.38q-2.16,1.82-3.78,3.31-3.78,3.64-7.16,7.56t-6.48,8.1a165.16,165.16,0,0,0-12.82,19.17q-0.41.68-1.55,3t-2.57,5.06q-1.42,2.77-2.83,5.47t-2.23,4.18a9.18,9.18,0,0,1-5.8-2.57,8.42,8.42,0,0,1-3-5.67,6.46,6.46,0,0,1,.13-2.16q0.27-1.48.74-3.31t1.15-3.78q0.68-2,1.49-3.71,3.11-7.29,6.62-14.24t7.42-13.84l9.58-16.74,8.1-13.77q0.94-1.48,2.5-4.46l3.17-6.08q1.75-3.51,3.92-7.42a16.86,16.86,0,0,1,3.65.95,22.35,22.35,0,0,1,3.1,1.75,9.09,9.09,0,0,1,2.7,2.83,9.43,9.43,0,0,1,.74,3.85,13.19,13.19,0,0,1-1.69,6A62,62,0,0,1,266,38.3q-2,3.17-3.92,6.41-2.7,4.45-6.28,9.85t-6.28,9.86q3.78-3.91,8.71-8.24a59.83,59.83,0,0,1,9.65-7,14.1,14.1,0,0,1,1.55-.81,21.9,21.9,0,0,1,2.63-1q1.48-.47,3-0.81a8.09,8.09,0,0,1,2.63-.2,7.7,7.7,0,0,1,5.06-1.21,8,8,0,0,1,4.79,2.16A10.22,10.22,0,0,1,291,53.15a18,18,0,0,1,.07,7.09,22.57,22.57,0,0,1-2.9,7,36.54,36.54,0,0,1-4.93,6.28,37.69,37.69,0,0,1-6.21,5.13,45.72,45.72,0,0,1-6.75,3.71q-1.89.68-3.78,1.28a35.77,35.77,0,0,1-3.92,1A19.1,19.1,0,0,0,262.5,89a56.25,56.25,0,0,0,.67,6.48,34.65,34.65,0,0,0,1.55,6.21q1,2.83,2.63,3.64a6.1,6.1,0,0,0,4.12.47,15.48,15.48,0,0,0,4.39-1.69,28,28,0,0,0,4-2.77,30.72,30.72,0,0,0,3.24-3,79.48,79.48,0,0,0,7.49-9.25A107.12,107.12,0,0,0,296.79,79Z"/><path class="cls-1" d="M334.58,53.62a8.39,8.39,0,0,1,4.32-.27,10.31,10.31,0,0,1,6.34,4,19.64,19.64,0,0,1,3.38,6.88,29.4,29.4,0,0,1,.13,12.22A53.64,53.64,0,0,1,345,88.45a8.65,8.65,0,0,0,8.44-.94,22.62,22.62,0,0,0,7.22-8.5q3.91-1.75,4.32,2.16a35.26,35.26,0,0,1-10.73,12.76,30.55,30.55,0,0,1-15.73,5.2q-2.16,2.84-4.66,5.6a39.06,39.06,0,0,1-5.33,4.93,28.78,28.78,0,0,1-6.14,3.58,21.59,21.59,0,0,1-7,1.69,17.69,17.69,0,0,1-8.1-1.28,18.39,18.39,0,0,1-6.35-4.46,23,23,0,0,1-4.32-6.68,26.59,26.59,0,0,1-2-8A37.64,37.64,0,0,1,295,85a46.82,46.82,0,0,1,7.16-18,43.48,43.48,0,0,1,6.07-7.29,35.05,35.05,0,0,1,7.49-5.26,22.93,22.93,0,0,1,8.71-2.57,20.33,20.33,0,0,1,4.93.07,14.91,14.91,0,0,1,4.79,1.42Zm-6.48,30A20.23,20.23,0,0,1,333,80.35a5.31,5.31,0,0,1,4.79-.13,5.13,5.13,0,0,1,1.62,1.48,32.44,32.44,0,0,0,1.28-7.56,27.3,27.3,0,0,0-.74-7.83,9.42,9.42,0,0,0-2-3.71,19.9,19.9,0,0,0-3.17-2.77,15.45,15.45,0,0,0-4.59.41,18.39,18.39,0,0,0-4.19,1.62,21.67,21.67,0,0,0-6.34,5.2,40.42,40.42,0,0,0-5.2,7.7,52.28,52.28,0,0,0-3.65,8.84,35.47,35.47,0,0,0-1.62,8.71,19.52,19.52,0,0,0,.88,7.29,7.4,7.4,0,0,0,3.92,4.52,9.58,9.58,0,0,0,7.83.2A20.23,20.23,0,0,0,330.4,98,13.15,13.15,0,0,1,327,96.21a7.4,7.4,0,0,1-2.36-2.9,5.73,5.73,0,0,1,.07-4.93A14.51,14.51,0,0,1,328.11,83.59Z"/><path class="cls-1" d="M388.45,77.38a33.23,33.23,0,0,0,3.92-5.2,43.84,43.84,0,0,0,3.17-6.07,34.83,34.83,0,0,0,1.89-5.67,7,7,0,0,0,.07-4l-0.27-.54q-1.89,1.21-3.64,2.5a27.68,27.68,0,0,0-3.24,2.77A51.13,51.13,0,0,0,382,71,57.76,57.76,0,0,0,377,79.41a43.55,43.55,0,0,0-3.31,9.32q-1.62,5.94-.27,9.38a7.74,7.74,0,0,0,4.46,4.66,13.06,13.06,0,0,0,7.42.34,29.06,29.06,0,0,0,8.91-3.58A49.06,49.06,0,0,0,405,91a53,53,0,0,0,8.57-12,4.57,4.57,0,0,1,2.77-.41q1.15,0.27,1.55,2.56a70.61,70.61,0,0,1-9.38,13.77A74,74,0,0,1,396.28,106a38.76,38.76,0,0,1-15.73,7q-7.76,1.35-13.43-1.42T359,101.88q-2.5-7,.07-17.89a52.18,52.18,0,0,1,5.54-13.7,53.7,53.7,0,0,1,9-11.68,36.14,36.14,0,0,1,6.48-4.93,26.64,26.64,0,0,1,7.42-3,23.81,23.81,0,0,1,3.44-.54,16.32,16.32,0,0,1,3.58.13,5.63,5.63,0,0,1,1.42-.61c0.49-.13,1-0.29,1.55-0.47a11.75,11.75,0,0,1,7,.74,9.42,9.42,0,0,1,4.59,4.25,11.61,11.61,0,0,1,1.08,5.74,24.45,24.45,0,0,1-4.46,12.89A13.35,13.35,0,0,1,401.14,77a12.4,12.4,0,0,1-6.08,1.55A17.06,17.06,0,0,1,388.45,77.38Z"/><path class="cls-1" d="M459.19,64.83A78.05,78.05,0,0,0,451,70.16q-3.92,2.9-7.56,6-3.11,2.56-6.55,5.74t-7.09,6.41q-3.65,3.24-7.29,6.21a60.42,60.42,0,0,1-7,5q4.18-.67,9-1.62T434,96.49a52,52,0,0,1,9.11-.14,18.82,18.82,0,0,1,7.56,2.09q5,2.7,6.14,6.68a18.32,18.32,0,0,1,.34,8.44,86.18,86.18,0,0,0-9.92-.95q-5.87-.27-12.62-0.2t-13.84.47q-7.09.4-13.57,1.08l-3.58.54a16.12,16.12,0,0,1-3.58.13,4.68,4.68,0,0,1-3.24-1.28,9.11,9.11,0,0,1-1.75-4.12,7.57,7.57,0,0,1-.07-4.39,3.09,3.09,0,0,1,1.69-1.82,48.59,48.59,0,0,0,8.3-4.66q4-2.77,7.76-5.74,3.24-2.56,6.82-5.6t7.29-6.28q3.71-3.24,7.22-6.41t6.62-5.87q1.89-1.62,3.38-2.83t3.51-2.57a43.34,43.34,0,0,0-5.2.34q-2.77.34-5.47,0.54a40.28,40.28,0,0,1-5.2.07,9.75,9.75,0,0,1-4.39-1.21q-4.19-2.29-4.72-5.54a16.47,16.47,0,0,1,.81-7.56,12.32,12.32,0,0,0,3.85.47q2.9,0.07,6.82.07t8.37-.13q4.46-.13,8.57-0.2t7.36-.2q3.24-.13,4.72-0.13A4.29,4.29,0,0,1,466.88,52q1.21,2.3.67,9-2.16.94-4.25,1.82T459.19,64.83Z"/><path class="cls-1" d="M535.46,52.14Q532.9,57,530.6,61q-1.89,3.51-3.71,6.82l-2.5,4.52a259.91,259.91,0,0,0-11.61,25.18q-5.13,12.89-10.4,26.53l6.08,1.89a48,48,0,0,0,5.33,1.42,53.72,53.72,0,0,0,5.6.88,11.12,11.12,0,0,0,5-.54,15.19,15.19,0,0,0,4.05-2.29,22.32,22.32,0,0,1-4,7.83,21.93,21.93,0,0,1-6.68,5.67,20.36,20.36,0,0,1-8.37,2.43,41.32,41.32,0,0,1-8.78-.4L496,140a90.17,90.17,0,0,1-5.26,10.87,45.1,45.1,0,0,1-7.29,9.52,40.32,40.32,0,0,1-9.58,6.68,25,25,0,0,1-11.34,2.63,23.64,23.64,0,0,1-20.52-12,22.81,22.81,0,0,1-3.11-11.07,29,29,0,0,1,2-11.41,30.67,30.67,0,0,1,6.21-9.79,24.5,24.5,0,0,1,9.58-6.34,34.6,34.6,0,0,1,15-1.89,98.2,98.2,0,0,1,15.12,2.43H487q1.75-5.26,3.64-10.46t3.92-10.33l-1.62,2.29q-1.75,2.57-3.85,5.4a26.41,26.41,0,0,1-4.59,4.86,13.29,13.29,0,0,1-5.47,2.7,10.05,10.05,0,0,1-6.62-1.08q-6.21-2.83-7.76-8.37a27.83,27.83,0,0,1-.34-12.42,53.05,53.05,0,0,1,5.13-14.65,131.48,131.48,0,0,1,8.1-13.43,64.89,64.89,0,0,1,4.79-6.21,20.74,20.74,0,0,1,6-5,11.44,11.44,0,0,1,5.74-.88,16.3,16.3,0,0,1,7.76,2.9q-2.43,3.24-6.07,8.91t-7.22,11.95a129.31,129.31,0,0,0-6.28,12.49,35.86,35.86,0,0,0-3.11,10.53,5.25,5.25,0,0,0,.47,2.83,2.62,2.62,0,0,0,1.82,1.49,4.71,4.71,0,0,0,3.11-.74,20.17,20.17,0,0,0,4.59-3.85,71.42,71.42,0,0,0,7.49-9.45q3.31-5,6.41-10.12,1.89-4.18,4.32-8.71a74.49,74.49,0,0,1,5.27-8.44A42.88,42.88,0,0,1,518.72,55a18.19,18.19,0,0,1,6.75-4,10.33,10.33,0,0,1,4.05-.47q1.75,0.2,3.1.47Q534.11,51.6,535.46,52.14ZM469,157.84a25.48,25.48,0,0,0,7.83-9.86,108.14,108.14,0,0,0,4.59-11.88v-0.27q-3.92-1.22-7.76-2.16a45.4,45.4,0,0,0-7.76-1.21,22.88,22.88,0,0,0-8.64,1.15,15.86,15.86,0,0,0-7.29,4.93,15.32,15.32,0,0,0-3.37,7.63,11.79,11.79,0,0,0,1.49,8,12.46,12.46,0,0,0,4.12,4.25,14.67,14.67,0,0,0,5.47,2,15.57,15.57,0,0,0,5.94-.2A14.73,14.73,0,0,0,469,157.84Z"/><path class="cls-1" d="M737.83,23.92q1.75,1.35.88,3T737.15,30q-0.54,1.08-2.29,4.73t-4,8.23q-2.23,4.59-4.46,9.11T723,59.29q-3.11,7-6.08,14.24T711.37,88q-1.08,3.24-2.16,7.36a84.26,84.26,0,0,0-1.75,8.44,69.77,69.77,0,0,0-.81,8.71,33.92,33.92,0,0,0,.67,8.17,19.67,19.67,0,0,0,2.7,6.68,11.77,11.77,0,0,0,5.26,4.39,7.17,7.17,0,0,0,2,.47,17.19,17.19,0,0,0,3.11.13,18.73,18.73,0,0,0,3.44-.47,7.68,7.68,0,0,0,3.11-1.49,9.1,9.1,0,0,1-1.55,3.92,16.38,16.38,0,0,1-3.17,3.44,20.13,20.13,0,0,1-4.18,2.63,18.57,18.57,0,0,1-4.46,1.48,21.52,21.52,0,0,1-9.79-.67,19.08,19.08,0,0,1-8.3-4.72,23.19,23.19,0,0,1-5.27-8,32.67,32.67,0,0,1-2.16-9.32,43.88,43.88,0,0,1,.27-9.72,74.1,74.1,0,0,1,1.89-9.32,143.19,143.19,0,0,1,7.42-19.58q4.46-9.58,9.18-18.9,3.24-6.34,6.48-12.62t6.21-12.76l0.81-1.75A19.47,19.47,0,0,0,716,38.84q-2.57,3.17-5.33,7.22t-5.54,8.37q-2.77,4.32-4.79,7.7Q694.63,71,689,79.81t-11.27,18q-2.3,3.64-4.66,7.29a72.85,72.85,0,0,1-4.93,6.75,15.1,15.1,0,0,1-4.39,3.38,19.39,19.39,0,0,1-5.87,2,17,17,0,0,1-6.21-.07,9.58,9.58,0,0,1-5.27-2.9,23.89,23.89,0,0,0,3.71-5.47q2.36-4.25,5.4-10.53t6.34-14q3.31-7.69,6.48-15.79t5.94-15.93q2.77-7.83,4.66-14.45a144.42,144.42,0,0,0-7.76,12.29Q667.63,56.73,664,62.8L656.15,75.9q-3.78,6.35-7.9,12.15A85.06,85.06,0,0,1,639,99q-2.7,2.7-5.54,5.47t-5.87,5.33a68.94,68.94,0,0,1-6.28,4.73,33.19,33.19,0,0,1-6.88,3.51,24.06,24.06,0,0,1-11.27,1.55,21.52,21.52,0,0,1-10.33-4,23.1,23.1,0,0,1-5.6-5.67,25.46,25.46,0,0,1-3.37-7,29.54,29.54,0,0,1-.47-15.59,43.88,43.88,0,0,1,6.08-14.17,51.79,51.79,0,0,1,10.13-11.47,51.12,51.12,0,0,1,5.67-4.12,32.6,32.6,0,0,1,6.55-3.17,27.09,27.09,0,0,1,7-1.49,18.82,18.82,0,0,1,7,.81,15,15,0,0,1,6.28,3.78,17.22,17.22,0,0,1,3.78,5.94,22.31,22.31,0,0,1,1.42,7.16,23.39,23.39,0,0,1-.81,7.15,29.17,29.17,0,0,1-8,13.16,23.9,23.9,0,0,1-13.64,6.68,24.39,24.39,0,0,1-2.9.13,36.81,36.81,0,0,1-3.78-.2,21.75,21.75,0,0,1-3.64-.68,4.92,4.92,0,0,1-2.5-1.42,41,41,0,0,0,12.55-5.67,23.23,23.23,0,0,0,8.37-10.67,33.49,33.49,0,0,0,2.23-7.36,18.25,18.25,0,0,0-.07-7.49,5.89,5.89,0,0,0-3.92-4.93,11.44,11.44,0,0,0-6.62-.34,18.92,18.92,0,0,0-6.75,3,28.22,28.22,0,0,0-5.54,5.06,33.62,33.62,0,0,0-4.18,6.35,36.8,36.8,0,0,0-2.7,6.82,38.74,38.74,0,0,0-1.49,7.22,25.81,25.81,0,0,0,.2,7.22,17.47,17.47,0,0,0,2.5,6.48,15.26,15.26,0,0,0,5.4,5,10.81,10.81,0,0,0,5.2,1.62,20.91,20.91,0,0,0,5.54-.47,26.4,26.4,0,0,0,5.4-1.82,39.62,39.62,0,0,0,4.93-2.7,36.09,36.09,0,0,0,8.44-7.42q3.58-4.32,7-8.91a158.1,158.1,0,0,0,11.21-17.35q5-9,10.26-17.89,4.05-6.88,8.64-13.91a53.89,53.89,0,0,1,10.8-12.15,20.14,20.14,0,0,1,5.8-3.17,13.14,13.14,0,0,1,6.21-.74,17.2,17.2,0,0,1,4.73,1.15,3.52,3.52,0,0,1,2,2.63q0.27,1.08-1.42,6.34T692.2,44q-2.84,7.36-6.41,15.93t-7,16.27q-1.35,3.11-2.83,6.41t-2.9,6.34q-1.42,3-2.63,5.6t-2,4q2.43-3.1,5.2-7.22t4.66-7.09Q684.9,74.14,691,63.75t13.16-20.38q2.29-3.24,4.66-6.34a70.47,70.47,0,0,1,5.06-5.94q1.62-1.75,3.85-4a15.15,15.15,0,0,1,4.66-3.37,15.52,15.52,0,0,1,4.32-1.28,25.41,25.41,0,0,1,4.46-.27,17.34,17.34,0,0,1,3.92.54A6.9,6.9,0,0,1,737.83,23.92Z"/></svg>