<svg id="Layer_3" data-name="Layer 3" xmlns="http://www.w3.org/2000/svg" viewBox="0 0 800 300"><defs><style>.cls-1{fill:#fff;}</style></defs><title>Logo_wide_wht</title><path class="cls-1" d="M135,16.92a58.88,58.88,0,0,0-6.54.12,34.18,34.18,0,0,0-6.41,1.1,12.25,12.25,0,0,1,1.7.61l1.7,0.73a20.86,20.86,0,0,1,8,6.91,20.55,20.55,0,0,1,3.58,10,23.38,23.38,0,0,1-1.95,11.55,33.28,33.28,0,0,1-6.6,9.84,39.29,39.29,0,0,1-10.94,7.7,59,59,0,0,1-12.95,4.4l-1.89.37a26.13,26.13,0,0,1,4.15,6.05,78.31,78.31,0,0,1,3.46,8.07q1.7,4.58,3.46,10.45t4,13.2a48.19,48.19,0,0,0,3.9,9.6,23,23,0,0,0,5.34,6.66,17.32,17.32,0,0,0,7.17,3.55,26.57,26.57,0,0,0,9.62.24,26,26,0,0,1-6.29,5.26,27.15,27.15,0,0,1-7.73,3.18,25,25,0,0,1-8.36.55,21.67,21.67,0,0,1-8.3-2.63,19.66,19.66,0,0,1-5.15-4.16,26.66,26.66,0,0,1-3.65-5.38,34.69,34.69,0,0,1-2.45-6.17q-0.94-3.24-1.57-6.42A71.74,71.74,0,0,1,99,104.4q-0.44-4-.82-7.95t-0.88-7.89a64.67,64.67,0,0,0-1.51-7.82Q95.3,79,94.67,77.19A8.78,8.78,0,0,0,92.78,74a8.13,8.13,0,0,0-3.39-2.32l-2.33.24a21.54,21.54,0,0,0-2.33.37,130.23,130.23,0,0,1-9.18,14.24A76.15,76.15,0,0,1,64,99a49.88,49.88,0,0,1-12.63,7.82,35.72,35.72,0,0,1-14.77,2.81A24.69,24.69,0,0,1,23.77,106,22.2,22.2,0,0,1,15.22,95.9a28.72,28.72,0,0,1-2.64-14.3,50,50,0,0,1,3-14.3,57,57,0,0,1,6.54-12.53,30.94,30.94,0,0,1,10.43-9.6A26.62,26.62,0,0,1,42.18,42a20.58,20.58,0,0,1,9.87,1,14.7,14.7,0,0,1,2.07-6.3,31.28,31.28,0,0,1,4-5.44,35.73,35.73,0,0,1,9-6.54,69.13,69.13,0,0,1,10.37-4.34A77.92,77.92,0,0,1,89.2,17.72q6-.92,12-1.28,1.38-.12,3-0.18t3.08-.06A32.15,32.15,0,0,1,115,13.25a25.8,25.8,0,0,1,8.74-.49,26.58,26.58,0,0,1,8.3,2Q134.77,16.07,135,16.92Zm-54.18,11a15.74,15.74,0,0,1,.69,5.75,19.68,19.68,0,0,1-1.26,5.75,24.36,24.36,0,0,1-2.77,5.26,18.09,18.09,0,0,1-4,4.16A20.47,20.47,0,0,1,68.08,52a15.1,15.1,0,0,1-6.22,1.1,23.49,23.49,0,0,1,1.51,11.31A29.59,29.59,0,0,1,51.23,85.57,22.52,22.52,0,0,1,38.35,90c-0.25,0-.65,0-1.19-0.06l-1.7-.12a12.92,12.92,0,0,1-1.76-.24,6,6,0,0,1-1.38-.43A17.44,17.44,0,0,0,36,87a55.2,55.2,0,0,0,4.4-3.67A60.28,60.28,0,0,0,44.64,79a23.78,23.78,0,0,0,3.14-4.34,42.58,42.58,0,0,0,3-6.11A34.27,34.27,0,0,0,52.93,61a18.38,18.38,0,0,0-.19-7.27,8.83,8.83,0,0,0-4.09-5.5,11.11,11.11,0,0,0-6.6-1.71,15.43,15.43,0,0,0-6.41,2,23.54,23.54,0,0,0-5.59,4.34,31.09,31.09,0,0,0-4.15,5.32A40.48,40.48,0,0,0,21.06,72.3,31.74,31.74,0,0,0,22.13,87.1a20,20,0,0,0,3.33,6.05,12.31,12.31,0,0,0,5.72,4,17.43,17.43,0,0,0,7,.79,25.92,25.92,0,0,0,7-1.53A27,27,0,0,0,57,88.5a73.89,73.89,0,0,0,8.23-11.55q4-6.85,7.35-13.81t7-13.94Q83.23,42.48,88.13,35A67.26,67.26,0,0,1,99.57,21.57a60.28,60.28,0,0,0-12.19.73,49.66,49.66,0,0,0-9.68,2.45,28.52,28.52,0,0,0-3.46,1.59,37,37,0,0,0-3.58,2.2Q68.9,29.76,67.33,31a26.69,26.69,0,0,0-2.7,2.51,21.16,21.16,0,0,0-4.4,6.17q-1.13,2.75-.38,4t3.21,0.55q2.45-.67,6.35-4a47.77,47.77,0,0,0,4-3.61q1.89-1.89,3.39-3.61T79.4,30A14.29,14.29,0,0,0,80.84,27.93ZM96.68,47.73q-1.76,3.91-3.58,7.7l-3.71,7.7h0.5a23.2,23.2,0,0,1,2.77.67,26.13,26.13,0,0,1,2.77,1,41,41,0,0,0,9.05-4.16,43.28,43.28,0,0,0,7.92-6.17,34.31,34.31,0,0,0,5.85-7.64,24.58,24.58,0,0,0,3-8.56q0.75-5.87-2-9.35a16.45,16.45,0,0,0-7.54-5.2A41.06,41.06,0,0,0,102.9,35Q99.44,41.5,96.68,47.73Z"/><path class="cls-1" d="M192.47,51.15q-1.38,1.83-3.33,4.77t-4.09,6.36q-2.14,3.42-4.21,7.09t-3.71,7q-3.39,6.85-5.28,11.49t-1,6a1.31,1.31,0,0,0,1.32.55,8.54,8.54,0,0,0,2.07-.43,10.6,10.6,0,0,0,2.07-.92q0.94-.55,1.32-0.79a24.28,24.28,0,0,0,4.9-4,61.53,61.53,0,0,0,4-4.71q1.76-2.32,3.39-4.89t3-5a4.59,4.59,0,0,1,2.58,0,2.44,2.44,0,0,1,1.45,2q-1.76,3.18-3.39,6.24a51.37,51.37,0,0,1-3.77,6q-2,2.93-4.21,5.62a61.11,61.11,0,0,1-4.71,5.13,31.24,31.24,0,0,1-5.22,4.1,11,11,0,0,1-6.35,1.65,10.61,10.61,0,0,1-6.29-2,11.17,11.17,0,0,1-4-5.13,12.62,12.62,0,0,1-.88-3.3,44.09,44.09,0,0,1-4.27,5.13,21.79,21.79,0,0,1-5.15,3.91,14.68,14.68,0,0,1-8.42,1.83,12.77,12.77,0,0,1-7.67-3.3,14.17,14.17,0,0,1-4.27-6.66,27.42,27.42,0,0,1-1.13-7.76,34.85,34.85,0,0,1,1.63-9.66,49.5,49.5,0,0,1,4-9.17A53.82,53.82,0,0,1,138.48,60a61.59,61.59,0,0,1,6.85-7,29.49,29.49,0,0,1,8-5.13,20.18,20.18,0,0,1,9.24-1.71,15.18,15.18,0,0,1,8.17,2.75,14.53,14.53,0,0,1,5.15,6.66,20.8,20.8,0,0,1,3.46-3.12,15.66,15.66,0,0,1,4.08-2.14,12,12,0,0,1,4.84-.73A6.56,6.56,0,0,1,192.47,51.15Zm-39.73,33.5a43.44,43.44,0,0,0,10.18-10,32.44,32.44,0,0,0,5.91-13,9.49,9.49,0,0,0-.13-5.07q-0.75-2.5-3.9-3a6.66,6.66,0,0,0-4.65,1,28.3,28.3,0,0,0-3.9,2.93,42.43,42.43,0,0,0-8.74,11.74,65.09,65.09,0,0,0-5.09,13.69q-1.63,7.09.69,9.35t6.35,0.18a26.08,26.08,0,0,0,5-3.3q2.32-2,4.46-4a20.93,20.93,0,0,1-3.58.43A2.92,2.92,0,0,1,152.75,84.65Z"/><path class="cls-1" d="M258.35,73.65q3.27-.73,4,2A112.09,112.09,0,0,1,250.8,93a73.8,73.8,0,0,1-7.35,7.58,32.18,32.18,0,0,1-9,5.75,16.65,16.65,0,0,1-8.55,1.16,13.07,13.07,0,0,1-7.67-3.73,15.27,15.27,0,0,1-3.39-4.46,23.38,23.38,0,0,1-1.89-5.2,26.59,26.59,0,0,1-.69-5.5,49.89,49.89,0,0,1,.19-5.62,17.93,17.93,0,0,1,.25-2.26q0.25-1.65.5-3.36t0.5-3.12a5.57,5.57,0,0,1,.38-1.53,51.73,51.73,0,0,0,8-2.69,42.41,42.41,0,0,0,6.79-3.55,38.32,38.32,0,0,0,3.9-3.12A34,34,0,0,0,237,58.79a22,22,0,0,0,3.08-5.32,9,9,0,0,0,.5-5.5,12.57,12.57,0,0,0-3.77,1.34q-2.14,1.1-4.34,2.51a43.79,43.79,0,0,0-4.21,3.06q-2,1.65-3.52,3-3.52,3.3-6.66,6.85t-6,7.33a149.39,149.39,0,0,0-11.94,17.36q-0.38.61-1.45,2.69t-2.39,4.58q-1.32,2.51-2.64,5t-2.07,3.79a8.66,8.66,0,0,1-5.41-2.32A7.56,7.56,0,0,1,183.42,98a5.73,5.73,0,0,1,.13-2q0.25-1.34.69-3t1.07-3.42q0.63-1.77,1.38-3.36,2.89-6.6,6.16-12.9t6.91-12.53l8.93-15.16,7.54-12.47q0.88-1.34,2.33-4l3-5.5q1.63-3.18,3.65-6.72a16,16,0,0,1,3.39.86,21.18,21.18,0,0,1,2.89,1.59A8.35,8.35,0,0,1,234,21.94a8.32,8.32,0,0,1,.69,3.48,11.68,11.68,0,0,1-1.57,5.44,55.57,55.57,0,0,1-3.39,5.93Q227.8,39.66,226,42.6q-2.52,4-5.85,8.92t-5.85,8.92q3.52-3.54,8.11-7.46a55.73,55.73,0,0,1,9-6.36,13.24,13.24,0,0,1,1.45-.73,20.65,20.65,0,0,1,2.45-.92q1.38-.43,2.83-0.73a7.72,7.72,0,0,1,2.45-.18,7.32,7.32,0,0,1,4.71-1.1,7.54,7.54,0,0,1,4.46,2A9.21,9.21,0,0,1,253,50.24a15.8,15.8,0,0,1,.06,6.42,20.13,20.13,0,0,1-2.7,6.36,33.22,33.22,0,0,1-4.59,5.69A34.81,34.81,0,0,1,240,73.34a43,43,0,0,1-6.29,3.36q-1.76.61-3.52,1.16a34,34,0,0,1-3.65.92,16.87,16.87,0,0,0-.13,3.91,49.54,49.54,0,0,0,.63,5.87,30.75,30.75,0,0,0,1.45,5.62,5.56,5.56,0,0,0,2.45,3.3,5.83,5.83,0,0,0,3.83.43,14.67,14.67,0,0,0,4.09-1.53,26.2,26.2,0,0,0,3.77-2.51,28.18,28.18,0,0,0,3-2.75,72.45,72.45,0,0,0,7-8.37A96.33,96.33,0,0,0,258.35,73.65Z"/><path class="cls-1" d="M293.54,50.67a8,8,0,0,1,4-.24,9.63,9.63,0,0,1,5.91,3.67,17.6,17.6,0,0,1,3.14,6.23,25.9,25.9,0,0,1,.13,11.06,47.63,47.63,0,0,1-3.52,10.82,8.25,8.25,0,0,0,7.86-.86,20.66,20.66,0,0,0,6.73-7.7q3.64-1.59,4,2a32.19,32.19,0,0,1-10,11.55,29,29,0,0,1-14.65,4.71q-2,2.57-4.34,5.07a36,36,0,0,1-5,4.46,27,27,0,0,1-5.72,3.24,20.59,20.59,0,0,1-6.47,1.53,16.91,16.91,0,0,1-7.54-1.16,17.14,17.14,0,0,1-5.91-4,20.79,20.79,0,0,1-4-6.05,23.55,23.55,0,0,1-1.89-7.21,33.2,33.2,0,0,1,.38-8.62,41,41,0,0,1,2.45-8.5,41.52,41.52,0,0,1,4.21-7.82,39.66,39.66,0,0,1,5.66-6.6,32.67,32.67,0,0,1,7-4.77,21.8,21.8,0,0,1,8.11-2.32,19.46,19.46,0,0,1,4.59.06,14.16,14.16,0,0,1,4.46,1.28Zm-6,27.14a18.92,18.92,0,0,1,4.59-2.93,5.07,5.07,0,0,1,4.46-.12,4.72,4.72,0,0,1,1.51,1.34,28.65,28.65,0,0,0,1.19-6.85,24,24,0,0,0-.69-7.09,8.46,8.46,0,0,0-1.82-3.36,18.28,18.28,0,0,0-3-2.51,14.74,14.74,0,0,0-4.27.37,17.37,17.37,0,0,0-3.9,1.47,20.07,20.07,0,0,0-5.91,4.71,36.6,36.6,0,0,0-4.84,7,46.61,46.61,0,0,0-3.39,8A31.33,31.33,0,0,0,270,85.69a17.22,17.22,0,0,0,.82,6.6,6.77,6.77,0,0,0,3.65,4.1,9.15,9.15,0,0,0,7.29.18,18.82,18.82,0,0,0,7.92-5.68,12.38,12.38,0,0,1-3.21-1.65,6.73,6.73,0,0,1-2.2-2.63,5.06,5.06,0,0,1,.06-4.46A13.16,13.16,0,0,1,287.51,77.81Z"/><path class="cls-1" d="M343.7,72.18a30.29,30.29,0,0,0,3.65-4.71,39.39,39.39,0,0,0,3-5.5,31,31,0,0,0,1.76-5.13,6.2,6.2,0,0,0,.06-3.61l-0.25-.49q-1.76,1.1-3.39,2.26a25.62,25.62,0,0,0-3,2.51,46.71,46.71,0,0,0-7.79,8.92A52,52,0,0,0,333.08,74,38.69,38.69,0,0,0,330,82.45q-1.51,5.38-.25,8.5a7.1,7.1,0,0,0,4.15,4.22,12.49,12.49,0,0,0,6.91.31,27.53,27.53,0,0,0,8.3-3.24,45.51,45.51,0,0,0,10-7.7,48.06,48.06,0,0,0,8-10.88,4.38,4.38,0,0,1,2.58-.37q1.07,0.25,1.45,2.32a64,64,0,0,1-8.74,12.47A68.24,68.24,0,0,1,351,98.1a36.6,36.6,0,0,1-14.65,6.36q-7.23,1.22-12.51-1.28a14.92,14.92,0,0,1-7.61-8.8q-2.32-6.3.06-16.2a46.54,46.54,0,0,1,5.15-12.41,48.83,48.83,0,0,1,8.42-10.58,33.66,33.66,0,0,1,6-4.46A25.22,25.22,0,0,1,342.82,48a22.76,22.76,0,0,1,3.21-.49,15.6,15.6,0,0,1,3.33.12,5.28,5.28,0,0,1,1.32-.55c0.46-.12.94-0.26,1.45-0.43a11.23,11.23,0,0,1,6.54.67,8.67,8.67,0,0,1,4.27,3.85,10.26,10.26,0,0,1,1,5.2,21,21,0,0,1-1.19,6.05,21.35,21.35,0,0,1-3,5.62,12.32,12.32,0,0,1-4.27,3.79,11.79,11.79,0,0,1-5.66,1.41A16.27,16.27,0,0,1,343.7,72.18Z"/><path class="cls-1" d="M409.58,60.81a72.94,72.94,0,0,0-7.67,4.83q-3.65,2.63-7,5.44-2.89,2.32-6.1,5.2t-6.6,5.81q-3.39,2.93-6.79,5.62a56.4,56.4,0,0,1-6.54,4.52q3.9-.61,8.36-1.47t8.93-1.28a49.75,49.75,0,0,1,8.49-.12,17.89,17.89,0,0,1,7,1.9q4.65,2.45,5.72,6.05a16.14,16.14,0,0,1,.31,7.64,82.47,82.47,0,0,0-9.24-.86q-5.47-.24-11.75-0.18t-12.89.43q-6.6.37-12.63,1l-3.33.49a15.44,15.44,0,0,1-3.33.12,4.42,4.42,0,0,1-3-1.16,8.13,8.13,0,0,1-1.63-3.73,6.67,6.67,0,0,1-.06-4,2.83,2.83,0,0,1,1.57-1.65,45.68,45.68,0,0,0,7.73-4.22q3.71-2.5,7.23-5.2,3-2.32,6.35-5.07t6.79-5.69q3.46-2.93,6.73-5.81t6.16-5.32q1.76-1.47,3.14-2.57t3.27-2.32a41.44,41.44,0,0,0-4.84.31q-2.58.31-5.09,0.49a38.59,38.59,0,0,1-4.84.06,9.25,9.25,0,0,1-4.08-1.1q-3.9-2.08-4.4-5a14.53,14.53,0,0,1,.75-6.85,11.82,11.82,0,0,0,3.58.43q2.7,0.06,6.35.06t7.79-.12q4.15-.12,8-0.18t6.85-.18q3-.12,4.4-0.12a4,4,0,0,1,3.52,2.2q1.13,2.08.63,8.19-2,.86-4,1.65T409.58,60.81Z"/><path class="cls-1" d="M480.6,49.32q-2.39,4.4-4.53,8.07-1.76,3.18-3.46,6.17l-2.33,4.1a232.1,232.1,0,0,0-10.81,22.8q-4.78,11.68-9.68,24l5.66,1.71a45.7,45.7,0,0,0,5,1.28,51.12,51.12,0,0,0,5.22.79,10.64,10.64,0,0,0,4.65-.49,14.28,14.28,0,0,0,3.77-2.08,20,20,0,0,1-3.71,7.09,20.29,20.29,0,0,1-6.22,5.13,19.38,19.38,0,0,1-7.79,2.2,39.61,39.61,0,0,1-8.17-.37l-4.27-.86a80.8,80.8,0,0,1-4.9,9.84,41,41,0,0,1-6.79,8.62,37.57,37.57,0,0,1-8.93,6.05,23.83,23.83,0,0,1-10.56,2.38,22,22,0,0,1-11.06-2.93,21.24,21.24,0,0,1-8-7.95,20.24,20.24,0,0,1-2.89-10,25.62,25.62,0,0,1,1.89-10.33,27.68,27.68,0,0,1,5.78-8.86,22.88,22.88,0,0,1,8.92-5.75,33.08,33.08,0,0,1,14-1.71,93.74,93.74,0,0,1,14.08,2.2h0.13q1.63-4.77,3.39-9.47t3.65-9.35L441,93.7q-1.63,2.32-3.58,4.89a24.24,24.24,0,0,1-4.27,4.4,12.54,12.54,0,0,1-5.09,2.45,9.59,9.59,0,0,1-6.16-1q-5.78-2.57-7.23-7.58a24.55,24.55,0,0,1-.31-11.25,47.22,47.22,0,0,1,4.78-13.26,118.37,118.37,0,0,1,7.54-12.16,59,59,0,0,1,4.46-5.62,19.19,19.19,0,0,1,5.59-4.52,10.91,10.91,0,0,1,5.34-.79,15.46,15.46,0,0,1,7.23,2.63Q447,54.82,443.64,60t-6.73,10.82a115.9,115.9,0,0,0-5.85,11.31,31.8,31.8,0,0,0-2.89,9.54,4.64,4.64,0,0,0,.44,2.57,2.42,2.42,0,0,0,1.7,1.34,4.48,4.48,0,0,0,2.89-.67,18.68,18.68,0,0,0,4.27-3.48,64.9,64.9,0,0,0,7-8.56q3.08-4.52,6-9.17,1.76-3.79,4-7.89a67.19,67.19,0,0,1,4.9-7.64A39.21,39.21,0,0,1,465,51.95a17.06,17.06,0,0,1,6.29-3.61,9.87,9.87,0,0,1,3.77-.43q1.63,0.18,2.89.43Q479.35,48.83,480.6,49.32ZM418.75,145a23.18,23.18,0,0,0,7.29-8.92,96.17,96.17,0,0,0,4.27-10.76v-0.24q-3.65-1.1-7.23-2a43.49,43.49,0,0,0-7.23-1.1,21.87,21.87,0,0,0-8,1,14.79,14.79,0,0,0-6.79,4.46,13.69,13.69,0,0,0-3.14,6.91,10.43,10.43,0,0,0,1.38,7.27,11.43,11.43,0,0,0,3.83,3.85,13.88,13.88,0,0,0,5.09,1.83,14.9,14.9,0,0,0,5.53-.18A13.91,13.91,0,0,0,418.75,145Z"/><path class="cls-1" d="M526.58,138.06q1.69,1.3.85,2.86t-1.5,3q-0.52,1-2.21,4.55t-3.83,7.93q-2.15,4.42-4.29,8.78t-3.32,7q-3,6.76-5.85,13.71t-5.33,14q-1,3.12-2.08,7.08a81.71,81.71,0,0,0-1.69,8.13,67.27,67.27,0,0,0-.78,8.39,32.66,32.66,0,0,0,.65,7.86,19,19,0,0,0,2.6,6.44,11.34,11.34,0,0,0,5.07,4.22,6.92,6.92,0,0,0,1.89.46,16.56,16.56,0,0,0,3,.13,18,18,0,0,0,3.32-.46,7.39,7.39,0,0,0,3-1.43,8.76,8.76,0,0,1-1.5,3.77,15.81,15.81,0,0,1-3.05,3.32,19.36,19.36,0,0,1-4,2.54,17.89,17.89,0,0,1-4.29,1.43,20.72,20.72,0,0,1-9.42-.65,18.39,18.39,0,0,1-8-4.55,22.3,22.3,0,0,1-5.07-7.67,31.44,31.44,0,0,1-2.08-9,42.24,42.24,0,0,1,.26-9.36,71.26,71.26,0,0,1,1.82-9,137.8,137.8,0,0,1,7.15-18.85q4.29-9.23,8.84-18.2,3.12-6.11,6.24-12.16t6-12.29l0.78-1.69a18.74,18.74,0,0,0-4.16,4.09q-2.47,3.06-5.13,7t-5.33,8.06q-2.67,4.16-4.62,7.41-5.46,8.58-10.85,17t-10.86,17.29q-2.21,3.51-4.49,7a69.92,69.92,0,0,1-4.74,6.5,14.53,14.53,0,0,1-4.23,3.25,18.65,18.65,0,0,1-5.66,2,16.35,16.35,0,0,1-6-.06,9.23,9.23,0,0,1-5.07-2.79,23.09,23.09,0,0,0,3.58-5.27q2.27-4.09,5.2-10.14t6.11-13.46q3.18-7.41,6.24-15.21t5.72-15.34q2.66-7.54,4.48-13.91a138.93,138.93,0,0,0-7.47,11.83q-3.45,6.11-7,12l-7.54,12.61q-3.64,6.11-7.61,11.7a81.94,81.94,0,0,1-8.9,10.53q-2.6,2.6-5.33,5.26t-5.66,5.14a66.49,66.49,0,0,1-6,4.55,32,32,0,0,1-6.63,3.38,23.16,23.16,0,0,1-10.86,1.5,20.72,20.72,0,0,1-9.94-3.83,22.22,22.22,0,0,1-5.4-5.46,24.51,24.51,0,0,1-3.25-6.7,28.42,28.42,0,0,1-.46-15,42.23,42.23,0,0,1,5.85-13.65,49.83,49.83,0,0,1,9.75-11,48.94,48.94,0,0,1,5.46-4,31.39,31.39,0,0,1,6.3-3.06,26.13,26.13,0,0,1,6.7-1.43,18.12,18.12,0,0,1,6.76.78,14.46,14.46,0,0,1,6,3.64,16.57,16.57,0,0,1,3.64,5.72,21.44,21.44,0,0,1,1.37,6.89,22.52,22.52,0,0,1-.78,6.89,28.07,28.07,0,0,1-7.67,12.67A23,23,0,0,1,408.15,209a23.6,23.6,0,0,1-2.79.13,35.4,35.4,0,0,1-3.64-.2,20.88,20.88,0,0,1-3.51-.65,4.75,4.75,0,0,1-2.4-1.37,39.44,39.44,0,0,0,12.09-5.46,22.37,22.37,0,0,0,8.06-10.27,32.19,32.19,0,0,0,2.15-7.08,17.55,17.55,0,0,0-.07-7.21,5.67,5.67,0,0,0-3.77-4.75,11,11,0,0,0-6.37-.32,18.21,18.21,0,0,0-6.5,2.86,27.12,27.12,0,0,0-5.33,4.88,32.47,32.47,0,0,0-4,6.11,35.55,35.55,0,0,0-2.6,6.56,37.31,37.31,0,0,0-1.43,7,24.8,24.8,0,0,0,.19,7,16.83,16.83,0,0,0,2.41,6.24,14.7,14.7,0,0,0,5.2,4.81,10.41,10.41,0,0,0,5,1.56,20.18,20.18,0,0,0,5.33-.46,25.35,25.35,0,0,0,5.2-1.75,38.07,38.07,0,0,0,4.74-2.6,34.73,34.73,0,0,0,8.13-7.15q3.44-4.16,6.7-8.58a152.34,152.34,0,0,0,10.79-16.71q4.81-8.64,9.88-17.22,3.9-6.63,8.32-13.39a51.88,51.88,0,0,1,10.4-11.7,19.38,19.38,0,0,1,5.59-3.05,12.66,12.66,0,0,1,6-.71,16.6,16.6,0,0,1,4.55,1.1,3.4,3.4,0,0,1,2,2.54q0.26,1-1.37,6.11t-4.35,12.16q-2.73,7.09-6.17,15.34t-6.7,15.67q-1.3,3-2.73,6.17t-2.8,6.11q-1.36,2.92-2.53,5.39t-2,3.9q2.34-3,5-7t4.49-6.83q6.37-9.75,12.28-19.76t12.68-19.63q2.21-3.12,4.48-6.11a67.47,67.47,0,0,1,4.88-5.72q1.56-1.69,3.71-3.9a14.56,14.56,0,0,1,4.49-3.25,15,15,0,0,1,4.16-1.24,24.55,24.55,0,0,1,4.29-.26,16.63,16.63,0,0,1,3.77.52A6.64,6.64,0,0,1,526.58,138.06Z"/><path class="cls-1" d="M579,167.18q-1.43,1.95-3.44,5.07T571.3,179q-2.21,3.64-4.35,7.54T563.11,194q-3.51,7.28-5.46,12.22t-1,6.37a1.34,1.34,0,0,0,1.36.58,8.67,8.67,0,0,0,2.15-.46,10.76,10.76,0,0,0,2.14-1c0.65-.39,1.11-0.67,1.37-0.84a25.29,25.29,0,0,0,5.07-4.23q2.21-2.4,4.16-5t3.51-5.2q1.69-2.73,3.12-5.33a4.62,4.62,0,0,1,2.67,0,2.59,2.59,0,0,1,1.5,2.08q-1.82,3.38-3.51,6.63a54.63,54.63,0,0,1-3.9,6.37q-2.08,3.12-4.36,6a64.6,64.6,0,0,1-4.87,5.46,32.42,32.42,0,0,1-5.39,4.35,11.08,11.08,0,0,1-6.57,1.75,10.76,10.76,0,0,1-6.5-2.08,11.84,11.84,0,0,1-4.16-5.46,13.76,13.76,0,0,1-.91-3.51,46.48,46.48,0,0,1-4.42,5.46,22.6,22.6,0,0,1-5.33,4.16,14.83,14.83,0,0,1-8.71,2,13,13,0,0,1-7.93-3.51,15.13,15.13,0,0,1-4.42-7.08,29.9,29.9,0,0,1-1.17-8.26,38,38,0,0,1,1.69-10.27,53.37,53.37,0,0,1,4.09-9.75,57.23,57.23,0,0,1,5.85-8.78,64.66,64.66,0,0,1,7.08-7.47,30.41,30.41,0,0,1,8.25-5.46,20.36,20.36,0,0,1,9.56-1.82,15.24,15.24,0,0,1,13.78,10,21.75,21.75,0,0,1,3.58-3.32,16.07,16.07,0,0,1,4.23-2.28,12.08,12.08,0,0,1,5-.78A6.67,6.67,0,0,1,579,167.18ZM537.89,202.8a45.55,45.55,0,0,0,10.53-10.66,35,35,0,0,0,6.11-13.78,10.37,10.37,0,0,0-.13-5.4q-0.78-2.66-4-3.18a6.74,6.74,0,0,0-4.81,1,29.29,29.29,0,0,0-4,3.12,45,45,0,0,0-9,12.48A70.38,70.38,0,0,0,527.23,201q-1.69,7.54.71,9.95t6.56,0.2a27,27,0,0,0,5.13-3.51q2.41-2.08,4.62-4.29a21,21,0,0,1-3.71.45A3,3,0,0,1,537.89,202.8Z"/><path class="cls-1" d="M563.37,213.07a142.17,142.17,0,0,0,14.3-19.57,129,129,0,0,0,10.79-22.42,10.73,10.73,0,0,1-1.3-6,12.8,12.8,0,0,1,1.5-5.2,7.12,7.12,0,0,1,3.18-3.12,3.77,3.77,0,0,1,3.9.39,3.85,3.85,0,0,1,1.82,4.09,23.21,23.21,0,0,1-1.43,5.27,4.24,4.24,0,0,0,2.15.52h2.14a27.44,27.44,0,0,0,6.24-1.17,12.93,12.93,0,0,1,3.38-3.58q1.56-1,3.77.84,5.2,4,5.92,7.61a7.29,7.29,0,0,1-2.28,6.7q-4.94,6.37-9.62,13.65a72.52,72.52,0,0,0-7,13.52,17.55,17.55,0,0,0-1.43,7.34q0.26,2.8,2,3.64t4.49-.19a20.64,20.64,0,0,0,6.17-4,64.06,64.06,0,0,0,7.93-8.84,79.64,79.64,0,0,0,7.28-11.44q1.82-1,2.92-.19a3.1,3.1,0,0,1,1.24,2.27q-3.51,6.63-7.21,12.22a69,69,0,0,1-8.78,10.66,30.38,30.38,0,0,1-8.45,6.18,22.89,22.89,0,0,1-8.19,2.27,13.43,13.43,0,0,1-7-1.3,11.78,11.78,0,0,1-4.94-4.62,15.36,15.36,0,0,1-2-7.54,26.55,26.55,0,0,1,2.08-10.21,93,93,0,0,1,6.5-13.65,100.73,100.73,0,0,1,7.54-11.44,5.22,5.22,0,0,1-1.43-.13,23,23,0,0,1-3-.58,23.85,23.85,0,0,1-3.64-1.24q-1.43,3.77-3.64,8.91T584,193.31q-2.47,4.68-5,8.58a39.86,39.86,0,0,1-5.13,6.5,19.79,19.79,0,0,1-5.27,3.9A8.12,8.12,0,0,1,563.37,213.07Z"/><path class="cls-1" d="M654,189.54a32.12,32.12,0,0,0,3.77-5,42.31,42.31,0,0,0,3.06-5.85,33.57,33.57,0,0,0,1.82-5.46,6.76,6.76,0,0,0,.07-3.83l-0.26-.52q-1.82,1.17-3.51,2.4a26.84,26.84,0,0,0-3.12,2.67,49.34,49.34,0,0,0-8.06,9.49,55.6,55.6,0,0,0-4.75,8.06,41.87,41.87,0,0,0-3.18,9q-1.56,5.72-.26,9a7.45,7.45,0,0,0,4.29,4.48,12.58,12.58,0,0,0,7.15.33,28,28,0,0,0,8.58-3.44,47.24,47.24,0,0,0,10.33-8.19,51.09,51.09,0,0,0,8.25-11.57,4.41,4.41,0,0,1,2.67-.39q1.1,0.26,1.5,2.47a68,68,0,0,1-9,13.26,71.2,71.2,0,0,1-11.76,10.66,37.33,37.33,0,0,1-15.15,6.76q-7.48,1.3-12.93-1.37t-7.87-9.36q-2.4-6.69.07-17.22a50.24,50.24,0,0,1,5.33-13.2,51.7,51.7,0,0,1,8.71-11.25,34.81,34.81,0,0,1,6.24-4.75,25.66,25.66,0,0,1,7.15-2.92,22.85,22.85,0,0,1,3.31-.52,15.65,15.65,0,0,1,3.45.13,5.36,5.36,0,0,1,1.37-.58c0.48-.13,1-0.28,1.5-0.46a11.32,11.32,0,0,1,6.76.71,9.08,9.08,0,0,1,4.42,4.09,11.19,11.19,0,0,1,1,5.53,23.56,23.56,0,0,1-4.29,12.42,12.86,12.86,0,0,1-4.42,4,11.92,11.92,0,0,1-5.85,1.5A16.4,16.4,0,0,1,654,189.54Z"/><path class="cls-1" d="M709.49,164.45a46.76,46.76,0,0,0-3.64,5.07q-2.08,3.25-4,6.76T698.11,183q-1.75,3.25-2.67,5.33-1.82,4-3.51,8.06t-3,8.19a23.54,23.54,0,0,0-1,6.43q0.06,2.54,1.49,3.32t4.16-.46a31.38,31.38,0,0,0,7-5,71.32,71.32,0,0,0,7.8-8.32,59.82,59.82,0,0,0,6.24-9.49q3.51-1.69,4.16,2.08A117.79,117.79,0,0,1,712.09,204a74,74,0,0,1-8.32,9.94q-7,7.41-12.68,9.82t-9.81.58a10,10,0,0,1-5.92-5.92,22.34,22.34,0,0,1-1.37-8.38,56.37,56.37,0,0,1,2.86-15.92,82.26,82.26,0,0,1,6.5-14.76q2.34-4.16,5.13-8.45a31.77,31.77,0,0,1,6.43-7.28,9.53,9.53,0,0,1,3.25-1.62,12.86,12.86,0,0,1,4.1-.52,14.32,14.32,0,0,1,4.09.72A6.28,6.28,0,0,1,709.49,164.45Zm-0.13-12.22a10.39,10.39,0,0,1-4.94-3.44,7.26,7.26,0,0,1-1.43-6.17,25.59,25.59,0,0,1,1.75-6,5.81,5.81,0,0,1,4.49-3.51,12.38,12.38,0,0,1,3.57,0,16.3,16.3,0,0,1,3.45.91q3.9,1.3,5,3.51a11.85,11.85,0,0,1,1.24,3.25,13.34,13.34,0,0,1-.46,5.07,9.85,9.85,0,0,1-2.54,4.29,9.08,9.08,0,0,1-4.81,2.41A11.62,11.62,0,0,1,709.36,152.23Z"/><path class="cls-1" d="M780.46,191.1q4-1.69,4.16,2.08a134.52,134.52,0,0,1-8.45,14,78.11,78.11,0,0,1-10.27,12,35.45,35.45,0,0,1-5.72,4.36,23.34,23.34,0,0,1-6.63,2.86,14.86,14.86,0,0,1-6.76.13,11,11,0,0,1-6.11-4,11.34,11.34,0,0,1-2.86-6,22.49,22.49,0,0,1,.07-7,41,41,0,0,1,1.82-7.15q1.23-3.51,2.4-6.5a85.06,85.06,0,0,1,6-11.25,113.62,113.62,0,0,0,6.31-11.25q-3.77,3-8.12,7a78.53,78.53,0,0,0-7.35,7.67q-3.9,4.68-7.41,9.55t-6.89,9.95q-1.69,2.6-3.25,5.13t-3,5.13l-1.95,2.92a3.41,3.41,0,0,1-3.25,1.63,6.14,6.14,0,0,1-3.12-.91,12.51,12.51,0,0,1-2.79-2.21,10.83,10.83,0,0,1-2-2.79,4.12,4.12,0,0,1-.46-2.67A64.74,64.74,0,0,1,712,195.59q5-8.77,10.21-17,2.21-3.38,4.22-7a66.49,66.49,0,0,1,4.49-7,6,6,0,0,1,3.05-2.34q1.88-.65,5.27,1.3a12,12,0,0,1,2.4,1.75,2.83,2.83,0,0,1,.85,2.08,6.81,6.81,0,0,1-1,3.05A43.69,43.69,0,0,1,738.6,175a63,63,0,0,0-3.83,6q-2,3.51-3.45,6.37,2.08-2.34,5-5.59t6.18-6.5q3.25-3.25,6.56-6a33.61,33.61,0,0,1,6.17-4.16A14.84,14.84,0,0,1,772,168a2.23,2.23,0,0,1,.91,1.75,8.37,8.37,0,0,1-.78,2,53.59,53.59,0,0,1-2.73,5.46q-1.56,2.86-3.25,5.66t-3.25,5.79q-2.21,4-4.75,8.51a80.09,80.09,0,0,0-4.36,8.91q-1.95,5.33-1.1,7.8a3.2,3.2,0,0,0,3.38,2.41q2.53-.06,6.3-2.54a36,36,0,0,0,7.67-7.15q2.73-3.38,5.33-7.15A91.85,91.85,0,0,0,780.46,191.1Z"/><path class="cls-1" d="M780.46,191.1q0.65-1,2.73-1t4,2.6a18.16,18.16,0,0,1,3.32,7.28,36,36,0,0,1,.78,9.36,52.69,52.69,0,0,1-1.56,10.59A67.77,67.77,0,0,1,785.92,231a54.38,54.38,0,0,1-10.79,16.77,47.38,47.38,0,0,1-14.43,10.14,59,59,0,0,1-17.55,4.75,123,123,0,0,1-20.15.58q-23.92-1.3-45-2.08t-39.84-.91q-18.72-.13-35.49.52t-32,2.53q-15.27,1.88-29.38,5.07a258.32,258.32,0,0,0-27.62,7.87q-3.51,1.17-5.4,1.75a3.57,3.57,0,0,1-2.54.2q-0.65-.39-0.19-2a46,46,0,0,1,1.75-4.75A41.19,41.19,0,0,1,516,258.9a59,59,0,0,1,12-9.1,69.43,69.43,0,0,1,13.2-5.85,87.16,87.16,0,0,1,12.15-3.06,210.35,210.35,0,0,1,27-2.47q13.91-.39,28.34.33t29.19,2.14l29.45,2.86q14.69,1.43,29.25,2.6t28.73,1.3q6.89,0.13,15,0a76.1,76.1,0,0,0,15.8-1.88A47.09,47.09,0,0,0,770.39,240a28.44,28.44,0,0,0,10.46-11.7,55.52,55.52,0,0,0,4-10.73,43.81,43.81,0,0,0,1.43-10.08,23.71,23.71,0,0,0-1.24-8.32,10.59,10.59,0,0,0-4-5.46A1.74,1.74,0,0,1,780.46,191.1Z"/></svg>