<svg id="Warstwa_2" data-name="Warstwa 2" xmlns="http://www.w3.org/2000/svg" viewBox="0 0 519.32 343.74"><defs><style>.cls-1{fill:#fff;}</style></defs><title>Marcin Rakoczy - logo, białe</title><path class="cls-1" d="M504.75,0H385a14.52,14.52,0,0,0-9.57,3.6l-44,38.53a14.52,14.52,0,0,1-19.1,0L268,3.57A14.52,14.52,0,0,0,258.46,0H136.28a14.52,14.52,0,0,0-9.53,3.57L5,109.61a14.49,14.49,0,0,0-5,10.93v208.7a14.5,14.5,0,0,0,14.52,14.5l119.71,0a14.52,14.52,0,0,0,9.53-3.57l81-70.54a14.51,14.51,0,0,1,24,10.93v48.68a14.5,14.5,0,0,0,14.5,14.5l119.83,0a14.52,14.52,0,0,0,9.54-3.57L514.34,234.31a14.49,14.49,0,0,0,5-10.94l-.06-208.87A14.5,14.5,0,0,0,504.75,0ZM294,74.39l-87.18,76.33a14.52,14.52,0,0,1-19.19-.05l-24.88-22a14.49,14.49,0,0,1,.06-21.76L250,30.57a14.52,14.52,0,0,1,19.19.07l24.81,22A14.49,14.49,0,0,1,294,74.39ZM144.56,18.88h50.73c13.42,0,19.65,16.64,9.52,25.44l-70,60.83a14.52,14.52,0,0,1-9.52,3.56H74.69c-13.41,0-19.65-16.62-9.53-25.43L135,22.45A14.52,14.52,0,0,1,144.56,18.88Zm1,261.45h0a14.51,14.51,0,0,1,24-10.93h0a14.49,14.49,0,0,1,.1,21.77h0A14.51,14.51,0,0,1,145.56,280.34Zm213.33,45H284.19a14.5,14.5,0,0,1-14.51-14.5V235.76a14.51,14.51,0,0,0-24.07-10.91L206.93,258.7a14.52,14.52,0,0,1-19.05.06l-39.49-34.13a14.51,14.51,0,0,0-24,11l.21,75.21a14.5,14.5,0,0,1-14.51,14.54H35.43a14.5,14.5,0,0,1-14.51-14.5V141.57a14.5,14.5,0,0,1,14.51-14.5h90.21a14.52,14.52,0,0,1,9.53,3.56l51.26,44.6a14.52,14.52,0,0,0,18.7.31l55.53-45.21a14.52,14.52,0,0,1,9.17-3.26h89.06a14.5,14.5,0,0,1,14.51,14.5V310.88A14.5,14.5,0,0,1,358.89,325.38ZM314.51,83.27l70-60.83A14.52,14.52,0,0,1,394,18.88h49.93c13.43,0,19.65,16.66,9.5,25.45l-70.23,60.83a14.52,14.52,0,0,1-9.5,3.54H324C310.61,108.71,304.38,92.07,314.51,83.27ZM492.65,227.13l-73.82,64.52a14.51,14.51,0,0,1-24.06-10.87l-.43-152a14.49,14.49,0,0,1,5-11L473.55,53a14.51,14.51,0,0,1,24.06,10.92V216.22A14.49,14.49,0,0,1,492.65,227.13Z" transform="translate(0)"/></svg>